<?xml version="1.0" encoding="UTF-8" standalone="no"?>
<svg width="800" height="400" xmlns="http://www.w3.org/2000/svg">
  <!-- Background -->
  <rect width="800" height="400" fill="#f8f9fa" rx="10" ry="10"/>
  
  <!-- Calendar Icon -->
  <rect x="250" y="100" width="300" height="200" fill="#ffffff" stroke="#dc3545" stroke-width="5" rx="15" ry="15"/>
  <rect x="290" y="70" width="20" height="60" fill="#dc3545" rx="5" ry="5"/>
  <rect x="490" y="70" width="20" height="60" fill="#dc3545" rx="5" ry="5"/>
  
  <!-- Calendar Header -->
  <rect x="250" y="130" width="300" height="40" fill="#dc3545"/>
  <text x="400" y="160" font-family="Arial" font-size="20" fill="white" text-anchor="middle">APRIL 2025</text>
  
  <!-- Calendar Dates -->
  <g font-family="Arial" font-size="16" text-anchor="middle" fill="#333">
    <!-- Week 1 -->
    <text x="290" y="200">1</text>
    <text x="340" y="200">2</text>
    <text x="390" y="200">3</text>
    <text x="440" y="200">4</text>
    <text x="490" y="200">5</text>
    
    <!-- Week 2 -->
    <text x="290" y="240">6</text>
    <text x="340" y="240">7</text>
    <text x="390" y="240">8</text>
    <text x="440" y="240">9</text>
    <text x="490" y="240">10</text>
    
    <!-- Event Highlight -->
    <rect x="370" y="230" width="40" height="20" fill="#f8d7da" rx="5" ry="5"/>
    <text x="390" y="244" font-size="14" fill="#dc3545">8</text>
  </g>
  
  <!-- People Icons -->
  <circle cx="200" cy="150" r="30" fill="#dc3545"/>
  <circle cx="600" cy="150" r="30" fill="#dc3545"/>
  <circle cx="180" cy="230" r="25" fill="#dc3545"/>
  <circle cx="620" cy="230" r="25" fill="#dc3545"/>
  
  <!-- Music Notes -->
  <text x="190" y="150" font-family="Arial" font-size="30" fill="white">♪</text>
  <text x="600" y="150" font-family="Arial" font-size="30" fill="white">♫</text>
  
  <!-- Location Pin -->
  <path d="M 400 320 L 410 300 A 10 10 0 1 0 390 300 Z" fill="#dc3545"/>
  
  <!-- Text "Get Vibe" -->
  <text x="400" y="350" font-family="Arial" font-size="24" font-weight="bold" fill="#dc3545" text-anchor="middle">Get Vibe</text>
</svg> 